<?xml version="1.0" encoding="utf-8"?>
<!-- Generator: Adobe Illustrator 21.1.0, SVG Export Plug-In . SVG Version: 6.00 Build 0)  -->
<svg version="1.1" id="Layer_1" xmlns="http://www.w3.org/2000/svg" xmlns:xlink="http://www.w3.org/1999/xlink" x="0px" y="0px"
	 viewBox="0 0 566.9 566.9" style="enable-background:new 0 0 566.9 566.9;" xml:space="preserve">
<style type="text/css">
	.st0{fill:#2C3E50;}
</style>
<g>
	<path class="st0" d="M192.6,361.6L161.9,249H161c1.4,19.2,2.2,34.1,2.2,44.7v67.9h-36V205.3h54.1l31.4,111h0.8l30.7-111h54.2v156.3
		H261v-68.5c0-3.6,0.1-7.5,0.2-11.9c0.1-4.3,0.6-15,1.4-32h-0.9l-30.3,112.4H192.6z"/>
	<path class="st0" d="M439.8,255c0,17.5-5,31-14.9,40.5c-9.9,9.5-24,14.3-42.2,14.3h-11.4v51.9h-40.6V205.3h52
		c19,0,33.2,4.3,42.8,12.9C435,226.9,439.8,239.1,439.8,255z M371.3,275.3h7.4c6.1,0,10.9-1.8,14.5-5.3c3.6-3.6,5.4-8.5,5.4-14.8
		c0-10.5-5.6-15.8-16.9-15.8h-10.5V275.3z"/>
</g>
<path class="st0" d="M496.1,496.1H70.9V70.9h425.2V496.1z M89.6,477.3h387.7V89.6H89.6V477.3z"/>
</svg>
